<?xml version="1.0" encoding="UTF-8" standalone="no"?>
<!-- Generator: Adobe Illustrator 19.1.0, SVG Export Plug-In . SVG Version: 6.00 Build 0)  -->

<svg
   xmlns:dc="http://purl.org/dc/elements/1.1/"
   xmlns:cc="http://creativecommons.org/ns#"
   xmlns:rdf="http://www.w3.org/1999/02/22-rdf-syntax-ns#"
   xmlns:svg="http://www.w3.org/2000/svg"
   xmlns="http://www.w3.org/2000/svg"
   xmlns:sodipodi="http://sodipodi.sourceforge.net/DTD/sodipodi-0.dtd"
   xmlns:inkscape="http://www.inkscape.org/namespaces/inkscape"
   version="1.1"
   x="0px"
   y="0px"
   viewBox="0 0 64 64"
   style="enable-background:new 0 0 64 64;"
   xml:space="preserve"
   id="svg170"
   sodipodi:docname="Circle-icons-computer.svg"
   inkscape:version="0.92.4 (5da689c313, 2019-01-14)"><metadata
   id="metadata176"><rdf:RDF><cc:Work
       rdf:about=""><dc:format>image/svg+xml</dc:format><dc:type
         rdf:resource="http://purl.org/dc/dcmitype/StillImage" /></cc:Work></rdf:RDF></metadata><defs
   id="defs174" /><sodipodi:namedview
   pagecolor="#ffffff"
   bordercolor="#666666"
   borderopacity="1"
   objecttolerance="10"
   gridtolerance="10"
   guidetolerance="10"
   inkscape:pageopacity="0"
   inkscape:pageshadow="2"
   inkscape:window-width="1920"
   inkscape:window-height="1080"
   id="namedview172"
   showgrid="false"
   inkscape:zoom="5.2149125"
   inkscape:cx="96.16821"
   inkscape:cy="9.8947836"
   inkscape:window-x="1920"
   inkscape:window-y="0"
   inkscape:window-maximized="0"
   inkscape:current-layer="Layer_1" />
<style
   type="text/css"
   id="style130">
	.st0{fill:#76C2AF;}
	.st1{opacity:0.2;}
	.st2{fill:#231F20;}
	.st3{fill:#FFFFFF;}
	.st4{fill:#E0E0D1;}
	.st5{fill:#4F5D73;}
</style>
<g
   id="Layer_1">
	
	<g
   class="st1"
   id="g138"
   transform="matrix(1.4889822,0,0,1.4109095,-15.263919,-14.327044)"
   style="opacity:0.2">
		<path
   class="st2"
   d="m 44,52 c 0,1.1 -0.9,2 -2,2 H 22 c -1.1,0 -2,-0.9 -2,-2 v 0 c 0,-1.1 0.9,-2 2,-2 h 20 c 1.1,0 2,0.9 2,2 z"
   id="path136"
   inkscape:connector-curvature="0"
   style="fill:#231f20" />
	</g>
	<g
   id="g142"
   transform="matrix(1.4889822,0,0,1.4109095,-15.263919,-14.327044)">
		<path
   class="st3"
   d="m 44,50 c 0,1.1 -0.9,2 -2,2 H 22 c -1.1,0 -2,-0.9 -2,-2 v 0 c 0,-1.1 0.9,-2 2,-2 h 20 c 1.1,0 2,0.9 2,2 z"
   id="path140"
   inkscape:connector-curvature="0"
   style="fill:#ffffff" />
	</g>
	<g
   id="g146"
   transform="matrix(1.4889822,0,0,1.4109095,-15.263919,-14.327044)">
		<path
   class="st4"
   d="m 37,42 c 0,0 -1,6 3,6 0,0 -20,0 -16,0 4,0 3,-6 3,-6 z"
   id="path144"
   inkscape:connector-curvature="0"
   style="fill:#e0e0d1" />
	</g>
	<g
   class="st1"
   id="g152"
   transform="matrix(1.4889822,0,0,1.4109095,-15.263919,-14.327044)"
   style="opacity:0.2">
		<g
   id="g150">
			<path
   class="st2"
   d="m 52,40 c 0,2.2 -1.8,4 -4,4 H 16 c -2.2,0 -4,-1.8 -4,-4 V 18 c 0,-2.2 1.8,-4 4,-4 h 32 c 2.2,0 4,1.8 4,4 z"
   id="path148"
   inkscape:connector-curvature="0"
   style="fill:#231f20" />
		</g>
	</g>
	<g
   id="g162"
   transform="matrix(1.4889822,0,0,1.4109095,-15.263919,-14.327044)">
		<g
   id="g156">
			<path
   class="st5"
   d="m 16,40.5 c -1.4,0 -2.5,-1.1 -2.5,-2.5 V 16 c 0,-1.4 1.1,-2.5 2.5,-2.5 h 32 c 1.4,0 2.5,1.1 2.5,2.5 v 22 c 0,1.4 -1.1,2.5 -2.5,2.5 z"
   id="path154"
   inkscape:connector-curvature="0"
   style="fill:#4f5d73" />
		</g>
		<g
   id="g160">
			<path
   class="st3"
   d="m 48,15 c 0.6,0 1,0.4 1,1 v 22 c 0,0.6 -0.4,1 -1,1 H 16 c -0.6,0 -1,-0.4 -1,-1 V 16 c 0,-0.6 0.4,-1 1,-1 h 32 m 0,-3 H 16 c -2.2,0 -4,1.8 -4,4 v 22 c 0,2.2 1.8,4 4,4 h 32 c 2.2,0 4,-1.8 4,-4 V 16 c 0,-2.2 -1.8,-4 -4,-4 z"
   id="path158"
   inkscape:connector-curvature="0"
   style="fill:#ffffff" />
		</g>
	</g>
	<g
   class="st1"
   id="g166"
   transform="matrix(1.4889822,0,0,1.4109095,-15.263919,-14.327044)"
   style="opacity:0.2">
		<polygon
   class="st3"
   points="26.2,13.9 41.2,39.9 50,39.9 50,13.9 "
   id="polygon164"
   style="fill:#ffffff" />
	</g>
</g>
<g
   id="Layer_2">
</g>
</svg>