<?xml version="1.0" encoding="UTF-8" standalone="no"?>
<svg
   xmlns:dc="http://purl.org/dc/elements/1.1/"
   xmlns:cc="http://creativecommons.org/ns#"
   xmlns:rdf="http://www.w3.org/1999/02/22-rdf-syntax-ns#"
   xmlns:svg="http://www.w3.org/2000/svg"
   xmlns="http://www.w3.org/2000/svg"
   xmlns:sodipodi="http://sodipodi.sourceforge.net/DTD/sodipodi-0.dtd"
   xmlns:inkscape="http://www.inkscape.org/namespaces/inkscape"
   width="3086"
   height="1000"
   viewBox="0 0 3086 1000"
   version="1.1"
   id="svg17"
   sodipodi:docname="plex.svg"
   inkscape:version="0.92.4 (5da689c313, 2019-01-14)">
  <metadata
     id="metadata23">
    <rdf:RDF>
      <cc:Work
         rdf:about="">
        <dc:format>image/svg+xml</dc:format>
        <dc:type
           rdf:resource="http://purl.org/dc/dcmitype/StillImage" />
        <dc:title>plex-logo-light</dc:title>
      </cc:Work>
    </rdf:RDF>
  </metadata>
  <defs
     id="defs21" />
  <sodipodi:namedview
     pagecolor="#ffffff"
     bordercolor="#666666"
     borderopacity="1"
     objecttolerance="10"
     gridtolerance="10"
     guidetolerance="10"
     inkscape:pageopacity="0"
     inkscape:pageshadow="2"
     inkscape:window-width="1920"
     inkscape:window-height="1080"
     id="namedview19"
     showgrid="false"
     inkscape:zoom="0.10823072"
     inkscape:cx="452.73653"
     inkscape:cy="500"
     inkscape:window-x="1920"
     inkscape:window-y="0"
     inkscape:window-maximized="0"
     inkscape:current-layer="svg17" />
  <title
     id="title2">plex-logo-light</title>
  <path
     fill="#494949"
     d="M3085.99 0h-290.001L2505.99 500l289.999 500h289.748l-289.748-499.75L3085.99 0"
     id="path4"
     style="fill:#ffffff" />
  <radialGradient
     id="a"
     cx="1244.351"
     cy="920.081"
     r=".925"
     gradientTransform="matrix(610 0 0 -1000.5 -756323.625 921038.75)"
     gradientUnits="userSpaceOnUse">
    <stop
       offset="0"
       stop-color="#f9be03"
       id="stop6" />
    <stop
       offset="1"
       stop-color="#cc7c19"
       id="stop8" />
  </radialGradient>
  <path
     fill="url(#a)"
     d="M2186 0h290l320 500.25-320 500.25h-290l319.999-500.25L2186 0"
     id="path11" />
  <path
     fill="#494949"
     d="M2085.947 1000h-577.073V0h577.073v173.737H1721.34v219.562h339.255V567.03H1721.34v257.864h364.607V1000M791.276 1000V0h212.04v824.895h405.609V1000H791.276M589.947 558.824c-67.268 57.007-162.91 85.501-286.938 85.501H212.04V1000H0V470.338l290 .359c177.562-2.069 186.842-110.818 186.842-148.497 0-34.979 0-146.755-157.842-148.5l-319 .003V0h319.424c121.293 0 213.515 26.107 276.677 78.321 63.152 52.213 94.733 130.071 94.733 233.581 0 107.625-33.633 189.928-100.887 246.922z"
     id="path13"
     style="fill:#ffffff" />
  <path
     fill="#494949"
     d="M0 110h212.2v429H0z"
     id="path15"
     style="fill:#ffffff" />
</svg>
